<?xml version="1.0" encoding="UTF-8"?>
<svg version="1.1" xmlns="http://www.w3.org/2000/svg" width="2000" height="2000">
<path d="M0 0 C660 0 1320 0 2000 0 C2000 660 2000 1320 2000 2000 C1340 2000 680 2000 0 2000 C0 1340 0 680 0 0 Z " fill="#458AB0" transform="translate(0,0)"/>
<path d="M0 0 C4.17392653 3.78517847 7.23081628 8.32395921 10.5 12.875 C16.62537636 21.2867998 23.06165728 29.25160864 30 37 C30.49741699 37.56444824 30.99483398 38.12889648 31.50732422 38.71044922 C38.15589761 46.24749243 45.01258084 52.85157055 53 59 C53.96035156 59.78761719 54.92070313 60.57523438 55.91015625 61.38671875 C90.33496853 89.10935519 133.61565799 98.59907523 177.07421875 94.3828125 C217.1655349 89.83860675 256.01812053 77.97914677 294.23852539 65.5020752 C398.9862107 31.30715085 398.9862107 31.30715085 453 25 C453.72356689 24.91386444 454.44713379 24.82772888 455.19262695 24.73898315 C470.01268372 23.01658334 484.71445306 22.63806319 499.625 22.6875 C500.76919403 22.68932281 501.91338806 22.69114563 503.09225464 22.69302368 C519.91697603 22.73811993 536.37619307 23.19271332 553 26 C554.09876465 26.17692383 555.1975293 26.35384766 556.32958984 26.53613281 C598.52306435 33.42462054 638.65436283 47.16358027 676 68 C676 72 676 72 674.68994141 73.52050781 C674.08327637 73.99327148 673.47661133 74.46603516 672.8515625 74.953125 C672.18084717 75.48583008 671.51013184 76.01853516 670.8190918 76.56738281 C670.0950415 77.12264648 669.37099121 77.67791016 668.625 78.25 C667.52442261 79.1177002 667.52442261 79.1177002 666.40161133 80.00292969 C664.9368551 81.15667714 663.46824406 82.30554941 661.99560547 83.44921875 C659.53938463 85.35794334 657.11188651 87.30106044 654.6875 89.25 C653.52734375 90.17619141 653.52734375 90.17619141 652.34375 91.12109375 C645.08010398 96.94411664 637.92478671 102.8884151 630.83227539 108.91772461 C627.46206984 111.77809259 624.06000538 114.59233985 620.625 117.375 C614.27640822 122.545882 608.11483192 127.92604266 601.94384766 133.30615234 C598.7795727 136.06346705 595.60878583 138.81325468 592.4375 141.5625 C591.82011963 142.09810547 591.20273926 142.63371094 590.56665039 143.18554688 C585.70569725 147.39883994 580.81654441 151.5784841 575.92431641 155.75537109 C572.50609717 158.68262923 569.14116832 161.65809681 565.8125 164.6875 C562.4991692 167.69814479 559.11058071 170.56565178 555.625 173.375 C551.61175889 176.6195076 547.77564046 179.9872668 544 183.5 C539.367489 187.8099377 534.5787805 191.8506094 529.6484375 195.8203125 C527.02724881 197.97757399 524.50845719 200.21311 522 202.5 C517.81097881 206.30820109 513.50819112 209.93008672 509.10546875 213.48828125 C506.80538263 215.34860248 504.51800364 217.22052335 502.23828125 219.10546875 C493.73556891 226.11649538 485.10562623 232.78814687 476 239 C475.19240234 239.55945313 474.38480469 240.11890625 473.55273438 240.6953125 C438.8963719 264.59625213 403.27573076 277.25244349 361.125 277.1875 C360.04049561 277.18659363 360.04049561 277.18659363 358.93408203 277.18566895 C349.93638432 277.16530542 340.9698396 277.02618812 332 276.25 C330.80334717 276.15755005 330.80334717 276.15755005 329.58251953 276.06323242 C324.60528496 275.54773695 320.74617924 274.10895219 316.23950195 271.97802734 C308.86012954 268.75533402 301.23889334 268.74518134 293.3125 268.625 C278.11285019 268.20764412 263.76044029 265.49427833 249.06030273 261.76318359 C245.07562046 260.76947663 241.07367012 259.8629537 237.06811523 258.95776367 C226.31601079 256.52694789 215.61152385 253.94144239 204.9375 251.1875 C203.75986084 250.88553711 202.58222168 250.58357422 201.36889648 250.27246094 C199.74576538 249.8494873 199.74576538 249.8494873 198.08984375 249.41796875 C197.12941162 249.16813232 196.16897949 248.9182959 195.17944336 248.66088867 C193 248 193 248 192 247 C192 243.04 192 239.08 192 235 C178.47 235 164.94 235 151 235 C151.02094727 238.24432861 151.04189453 241.48865723 151.06347656 244.83129883 C151.12989127 255.57600298 151.17399322 266.32071642 151.20724869 277.06557178 C151.22808256 283.57727266 151.25632391 290.08876241 151.30175781 296.6003418 C151.34536466 302.88975271 151.36916868 309.1789611 151.37950897 315.46851158 C151.38687368 317.86257805 151.40125501 320.25663402 151.42292023 322.65061378 C151.45215068 326.01576928 151.4559477 329.38009838 151.45410156 332.74536133 C151.46848267 333.72504379 151.48286377 334.70472626 151.49768066 335.71409607 C151.4457074 344.52584881 149.08164025 353.40636768 143.625 360.5 C135.52517113 367.97676511 125.3057979 368.52130769 114.91748047 368.13183594 C108.4670708 367.68833947 103.28657273 365.25515702 98.5703125 360.87890625 C93.67667776 355.02358707 90.87107014 347.9425583 90.87974548 340.34295654 C90.87768349 338.94637314 90.87768349 338.94637314 90.87557983 337.52157593 C90.87917511 336.50737579 90.88277039 335.49317566 90.88647461 334.44824219 C90.88632858 333.37476532 90.88618256 332.30128845 90.8860321 331.19528198 C90.88672897 327.64579246 90.89451086 324.09635536 90.90234375 320.546875 C90.90420873 318.08636504 90.90563226 315.6258547 90.90663147 313.16534424 C90.91045033 306.68805924 90.92027528 300.21079665 90.93133545 293.73352051 C90.9415631 287.12443342 90.946132 280.51534272 90.95117188 273.90625 C90.96189808 260.93748857 90.97948981 247.96874965 91 235 C77.47 235 63.94 235 50 235 C50.06308625 249.49171225 50.13863954 263.98321576 50.23571491 278.47474098 C50.280502 285.20482431 50.31995494 291.93485674 50.34643555 298.66503906 C50.37257817 305.16853353 50.41305767 311.67179958 50.46318626 318.17515182 C50.47978108 320.6476188 50.49134107 323.12012522 50.49761391 325.59263992 C50.55665779 346.73955658 51.9243957 365.42526304 65 383 C65.7425 384.03125 66.485 385.0625 67.25 386.125 C74.91749515 394.14101766 85.37182579 399.92342326 96 403 C96 403.33 96 403.66 96 404 C87.69914041 403.62042368 80.25818931 401.52453702 72.375 399 C71.74338959 398.7999234 71.11177917 398.5998468 70.46102905 398.39370728 C18.58380295 381.94820288 -27.32505055 356.51492243 -70 323 C-61.1727874 308.85227569 -50.56630955 295.96919987 -39 284 C-38.32839844 283.27683594 -37.65679688 282.55367187 -36.96484375 281.80859375 C-13.87406055 257.54121013 19.69235557 240.53845037 52 233 C52.72058594 232.81953125 53.44117188 232.6390625 54.18359375 232.453125 C79.3527164 226.33649092 108.64545392 226.64834496 134.015625 231.63623047 C137.3260707 232.24309121 140.65758062 232.61230946 144 233 C143.00033203 232.29037109 143.00033203 232.29037109 141.98046875 231.56640625 C124.44147396 218.98248411 107.87245672 204.59740357 94 188 C93.1853125 187.04738281 92.370625 186.09476563 91.53125 185.11328125 C77.5441841 168.42318584 65.2706302 149.5864819 55.20263672 130.29345703 C53.88783009 127.78608929 52.54050798 125.29766593 51.19140625 122.80859375 C38.22226249 98.67678355 27.78381564 73.50332243 17.77368164 48.04013062 C15.81525698 43.0590097 13.83992858 38.08494018 11.85305786 33.11509705 C10.44751952 29.5986499 9.04637785 26.08046032 7.64593506 22.5619812 C6.96860719 20.86226362 6.28978836 19.16313937 5.60943604 17.46463013 C4.66440508 15.10333732 3.72593468 12.73953951 2.7890625 10.375 C2.36361145 9.31816261 2.36361145 9.31816261 1.92956543 8.23997498 C0.78427599 5.33301583 0 3.15552115 0 0 Z " fill="#7B9AB6" transform="translate(746,679)"/>
<path d="M0 0 C4.08469167 1.26963234 7.76354893 2.78756953 11.53515625 4.80078125 C12.5809082 5.35886475 13.62666016 5.91694824 14.70410156 6.49194336 C16.36650879 7.3931189 16.36650879 7.3931189 18.0625 8.3125 C19.2184668 8.93842041 20.37443359 9.56434082 21.56542969 10.20922852 C44.42563919 22.66689112 66.45521578 36.99821736 87 53 C88.11191544 53.85555157 89.22389816 54.71101572 90.3359375 55.56640625 C98.79377855 62.10788909 106.97028948 68.94094049 115 76 C115.90363281 76.79019531 116.80726563 77.58039063 117.73828125 78.39453125 C125.00781693 84.90660446 131.90304531 91.79895877 138.8125 98.6875 C139.31272675 99.18504791 139.81295349 99.68259583 140.32833862 100.19522095 C146.10594645 105.94936425 151.72255986 111.78019106 157 118 C157.845625 118.96421875 158.69125 119.9284375 159.5625 120.921875 C185.99019116 151.58477307 207.42041225 186.14769381 226 222 C226.51626953 222.98339355 227.03253906 223.96678711 227.56445312 224.97998047 C242.18359284 252.87480141 253.92962727 282.20077791 265.27685547 311.54736328 C268.52004443 319.93466181 271.79400592 328.31003897 275.0625 336.6875 C275.40326569 337.56101105 275.74403137 338.43452209 276.09512329 339.33450317 C311.44951757 432.04311308 311.44951757 432.04311308 367.95703125 512.7734375 C369.82959308 514.81427926 371.63829534 516.89463697 373.4375 519 C383.34743081 530.32238072 394.70905369 539.60235472 406.6730957 548.63867188 C409.29165478 550.62681457 411.70891653 552.64574327 414 555 C409.60649681 554.55415682 405.26877011 554.091956 400.93359375 553.24609375 C375.4835174 548.50336058 346.08032598 548.43245853 321 555 C320.05995117 555.24137695 319.11990234 555.48275391 318.15136719 555.73144531 C292.4058318 562.5290875 267.69992742 574.10794304 247 591 C246.47744629 591.42249023 245.95489258 591.84498047 245.41650391 592.28027344 C229.42654298 605.25996897 216.48898254 619.95384655 205 637 C204.566875 637.64195312 204.13375 638.28390625 203.6875 638.9453125 C202.78516766 640.29254481 201.89119914 641.64537731 201 643 C197.05688837 642.43928229 195.10560273 640.55781148 192.25 637.875 C189.33761004 635.15990097 186.41031191 632.48820572 183.38671875 629.8984375 C178.40901192 625.55772726 173.73182568 620.91788998 169.06420898 616.24951172 C167.57358385 614.76106763 166.07512983 613.28082723 164.57617188 611.80078125 C158.99048332 606.24680896 153.81922881 600.56363107 148.92236328 594.38378906 C147.13241948 592.16420419 145.26599198 590.0755331 143.3125 588 C132.64557345 576.11947103 123.53195256 562.47758168 115 549 C114.54979492 548.2889209 114.09958984 547.5778418 113.63574219 546.84521484 C99.91534055 524.97626761 88.33915065 502.061949 79 478 C78.65275879 477.12166504 78.30551758 476.24333008 77.94775391 475.33837891 C68.40588988 451.06201678 61.62104406 426.23334396 58.42822266 400.34716797 C57.67594345 394.46703801 56.76338397 388.61081568 55.875 382.75 C54.66016765 374.61253316 53.491408 366.47569192 52.4921875 358.30859375 C52.10239463 355.68831943 51.62011582 353.15412577 51.0703125 350.56640625 C49.51001784 342.93072323 48.69262244 335.18031567 47.75 327.44970703 C46.88437965 320.3878004 45.95046485 313.39454284 44.46875 306.43164062 C43.35428612 300.65035923 42.8195773 294.76732868 42.14453125 288.921875 C41.58598262 284.23727356 40.97019796 279.61858498 40 275 C38.60630415 268.36537184 37.92162209 261.65096927 37.14453125 254.921875 C37.02464844 253.91640625 36.90476562 252.9109375 36.78125 251.875 C36.67876953 250.98554687 36.57628906 250.09609375 36.47070312 249.1796875 C36.07810596 246.52762035 35.59216703 243.94182175 35.05029297 241.31811523 C33.94933664 235.91630844 33.15693272 230.49623135 32.4140625 225.03515625 C32.27232101 224.01228516 32.13057953 222.98941406 31.98454285 221.93554688 C31.6838026 219.76369284 31.38434523 217.59166082 31.08609009 215.41946411 C30.3098893 209.76833812 29.52365592 204.11860707 28.73828125 198.46875 C28.58552231 197.36821793 28.43276337 196.26768585 28.27537537 195.13380432 C26.73960994 184.08722904 25.11854273 173.0545715 23.45605469 162.02636719 C22.610356 156.41433243 21.77268949 150.80110743 20.9375 145.1875 C20.68794556 143.51107422 20.68794556 143.51107422 20.43334961 141.80078125 C19.2255636 133.63938456 18.09955816 125.4688186 17.00366211 117.29174805 C16.28183865 111.94430126 15.45846005 106.6285043 14.53125 101.3125 C13.61121623 95.57581887 12.87679913 89.81293609 12.10546875 84.0546875 C11.35017779 78.4548535 10.50494695 72.88661342 9.53125 67.3203125 C8.61506397 61.59414981 7.88269767 55.84090696 7.140625 50.08984375 C6.56323105 45.71545695 5.90912693 41.39745648 5.00390625 37.078125 C3.82277155 31.38148201 3.12385545 25.6491014 2.4375 19.875 C2.24897461 18.32619141 2.24897461 18.32619141 2.05664062 16.74609375 C1.81346905 14.74724888 1.57170122 12.74823259 1.33154297 10.74902344 C0.89923859 7.1645262 0.45099498 3.58218869 0 0 Z " fill="#0398DE" transform="translate(477,358)"/>
<path d="M0 0 C1.77482672 3.24765925 2.8059955 6.48256815 3.8125 10.0390625 C4.16038574 11.2461084 4.50827148 12.4531543 4.86669922 13.69677734 C5.05069275 14.33653503 5.23468628 14.97629272 5.42425537 15.63543701 C21.90373192 72.58248431 50.55598321 126.54495481 90.6640625 170.41796875 C91.94205152 171.83059541 93.21371969 173.24944736 94.453125 174.69604492 C99.17761002 180.20211314 104.19343706 185.37961878 109.32324219 190.50854492 C110.73919947 191.92668284 112.14698289 193.35296665 113.5546875 194.77929688 C118.9887987 200.22476068 124.57126898 205.27754897 130.59863281 210.06005859 C132.82293815 211.85696081 134.91820492 213.72895076 137 215.6875 C174.57346916 249.27791589 246.57739474 296 299 296 C297.96552734 295.56300781 297.96552734 295.56300781 296.91015625 295.1171875 C290.45772389 292.30254622 284.68351941 289.15075925 279 285 C277.4840625 283.9171875 277.4840625 283.9171875 275.9375 282.8125 C264.02878517 272.45853405 258.03814436 256.26802238 256 241 C255.8588127 237.31501644 255.8736669 233.63307609 255.88647461 229.94580078 C255.88632858 228.84277115 255.88618256 227.73974152 255.8860321 226.60328674 C255.88672726 222.96727514 255.89450109 219.33131513 255.90234375 215.6953125 C255.90420934 213.17040027 255.90563258 210.64548767 255.90663147 208.12057495 C255.91005596 202.16025916 255.91793281 196.19995985 255.92798096 190.23965251 C255.93917563 183.45125333 255.94466099 176.66285324 255.94967639 169.87444711 C255.96011636 155.916286 255.97844839 141.95814814 256 128 C269.53 128 283.06 128 297 128 C297.0093457 131.27462158 297.01869141 134.54924316 297.02832031 137.9230957 C297.06215554 148.76775169 297.11774111 159.6122187 297.18390274 170.45672321 C297.22333587 177.02885723 297.25554501 183.60085808 297.27099609 190.1730957 C297.28618974 196.52101685 297.32068431 202.86857182 297.36830902 209.21632957 C297.38309473 211.63265988 297.39103939 214.04904247 297.39188385 216.46541786 C297.39426362 219.86185938 297.42142632 223.25729718 297.45410156 226.65356445 C297.4490712 227.64259766 297.44404083 228.63163086 297.43885803 229.65063477 C297.57641349 238.95108633 299.88993111 247.75123729 306.42578125 254.6328125 C313.80724402 261.04351218 323.83495156 260.61460507 333.05859375 260.18359375 C338.80197349 259.64045724 343.28416896 257.29640567 347.8125 253.875 C352.69715011 247.45517415 356.09264183 240.51241246 356.15821838 232.38092041 C356.1680072 231.45827896 356.17779602 230.53563751 356.18788147 229.58503723 C356.19363693 228.58018784 356.1993924 227.57533844 356.20532227 226.54003906 C356.21522186 225.47631577 356.22512146 224.41259247 356.23532104 223.31663513 C356.26691567 219.79965442 356.29168554 216.2826602 356.31640625 212.765625 C356.33697753 210.32753142 356.35797404 207.88944139 356.37937927 205.45135498 C356.43458196 199.03329342 356.48399926 192.61519978 356.53222656 186.19708252 C356.58245469 179.64828637 356.63813392 173.09953683 356.69335938 166.55078125 C356.80091894 153.70055917 356.90186518 140.85029751 357 128 C370.53 128 384.06 128 398 128 C398.09065396 142.47429975 398.16391936 156.94840849 398.20724869 171.42292881 C398.22778398 178.14525656 398.25572908 184.86739406 398.30175781 191.58959961 C398.34547166 198.08651161 398.36919093 204.58322677 398.37950897 211.08027458 C398.38685466 213.54918449 398.40119807 216.01808459 398.42292023 218.48690987 C398.53356981 231.59342597 398.52723123 243.57604066 394 256 C393.60113586 257.12092545 393.20227173 258.24185089 392.7913208 259.39674377 C390.26055086 266.22509973 386.84768625 271.59569006 382 277 C381.39285156 277.68835937 380.78570313 278.37671875 380.16015625 279.0859375 C365.20084391 295.05477399 344.10860824 299.87067552 323 301 C347.40129199 307.12537566 372.17016311 307.28931863 397.1875 307.3125 C398.40562378 307.31599457 399.62374756 307.31948914 400.87878418 307.3230896 C414.61418775 307.34492594 428.14423285 306.97307282 441.7980957 305.42651367 C445.21483434 305.04509543 448.55816577 304.91316711 452 305 C448.42331041 308.71656013 444.65106467 311.97662662 440.5625 315.125 C439.31244972 316.09759163 438.06245116 317.07024973 436.8125 318.04296875 C436.17828125 318.53458496 435.5440625 319.02620117 434.890625 319.53271484 C431.93922586 321.82325059 429.00026789 324.1295221 426.0625 326.4375 C425.48830322 326.88818848 424.91410645 327.33887695 424.32250977 327.80322266 C420.02896357 331.17813023 415.76069328 334.58374864 411.5 338 C403.24103508 344.62209135 394.91712467 351.15989322 386.57421875 357.67578125 C380.30926469 362.57538778 374.09752977 367.53142927 367.9375 372.5625 C363.15607379 376.4667889 358.34576852 380.31875117 353.4375 384.0625 C348.76317404 387.62883758 344.14666279 391.25606465 339.5625 394.9375 C334.70654847 398.83720261 329.83749818 402.71824557 324.9375 406.5625 C324.36249756 407.01375244 323.78749512 407.46500488 323.19506836 407.92993164 C320.3238633 410.18164366 317.44992789 412.42982535 314.57421875 414.67578125 C308.30926469 419.57538778 302.09752977 424.53142927 295.9375 429.5625 C291.15607379 433.4667889 286.34576852 437.31875117 281.4375 441.0625 C276.76317404 444.62883758 272.14666279 448.25606465 267.5625 451.9375 C262.70654847 455.83720261 257.83749818 459.71824557 252.9375 463.5625 C252.36249756 464.01375244 251.78749512 464.46500488 251.19506836 464.92993164 C248.3238633 467.18164366 245.44992789 469.42982535 242.57421875 471.67578125 C236.30926469 476.57538778 230.09752977 481.53142927 223.9375 486.5625 C219.15607379 490.4667889 214.34576852 494.31875117 209.4375 498.0625 C204.76317404 501.62883758 200.14666279 505.25606465 195.5625 508.9375 C190.70654847 512.83720261 185.83749818 516.71824557 180.9375 520.5625 C180.36249756 521.01375244 179.78749512 521.46500488 179.19506836 521.92993164 C176.3238633 524.18164366 173.44992789 526.42982535 170.57421875 528.67578125 C164.98350785 533.04825808 159.42451823 537.45192887 153.93041992 541.94555664 C151.25842235 544.12879352 148.57587681 546.29879923 145.89111328 548.46630859 C144.65827568 549.46613893 143.42984218 550.47143188 142.20654297 551.48291016 C140.58830879 552.81842686 138.95363085 554.1302991 137.3125 555.4375 C136.40113281 556.17871094 135.48976563 556.91992188 134.55078125 557.68359375 C132 559 132 559 129.4921875 558.4453125 C99.02051846 540.77365491 80.37610527 509.8127878 71.50390625 476.484375 C67.90227099 462.40638049 65.48677777 448.28032107 63.43359375 433.90576172 C62.81705755 429.77399716 62.07405773 425.66957241 61.3125 421.5625 C60.33820573 416.26312063 59.65041676 411.01623619 59.26293945 405.64086914 C59.01718558 403.17260575 58.59755992 400.85414789 58.06640625 398.43359375 C56.66877007 391.64785949 55.93873209 384.79913062 55.14453125 377.921875 C54.4829454 372.37309042 53.62934108 366.94738465 52.48193359 361.47949219 C51.62260202 357.05833134 51.11034324 352.59353875 50.5625 348.125 C49.62598874 340.71473522 48.63229959 333.32044947 47.5 325.9375 C46.4054505 318.80069296 45.39675357 311.65624963 44.4375 304.5 C43.57588102 298.08126828 42.64414161 291.69307856 41.53125 285.3125 C40.62251954 279.64629832 39.88837748 273.95504604 39.140625 268.265625 C38.23894479 261.48342171 37.15032672 254.74409397 36 248 C33.47133467 232.97257831 31.26655709 217.93108306 29.39501953 202.80932617 C28.5623994 196.12608621 27.6152589 189.48903091 26.47314453 182.85180664 C25.55091596 177.29321429 24.86375595 171.70110389 24.14453125 166.11328125 C23.56410561 161.72576274 22.90844722 157.39489513 22 153.0625 C20.83676093 147.45307814 20.16488481 141.81175253 19.5 136.125 C18.65558639 129.13431084 17.76934922 122.18335565 16.53125 115.25 C15.59946161 109.54964752 14.87961686 103.81754649 14.140625 98.08935547 C13.56274569 93.71207676 12.90750335 89.39216781 12 85.0703125 C10.61832792 78.41018024 9.92423049 71.67355635 9.14453125 64.921875 C8.59990942 60.35407901 8.01651016 55.84242686 7.06640625 51.33984375 C5.64752287 44.57753467 4.73404091 37.73459333 3.76782227 30.89624023 C3.43858738 28.57018238 3.1033821 26.2450394 2.76757812 23.91992188 C1.62865743 15.96021308 0.59675773 8.02283287 0 0 Z " fill="#535454" transform="translate(540,786)"/>
<path d="M0 0 C2.77589315 1.92502992 5.29219165 3.96028489 7.81640625 6.203125 C8.60402344 6.87085938 9.39164063 7.53859375 10.203125 8.2265625 C24.60014745 21.37698369 30.16285554 40.37541039 31.0390625 59.34375 C31.67193506 80.90081751 25.18945577 100.96601083 10.30078125 116.87890625 C-1.86425892 128.25972214 -17.08486215 132.71440348 -33.3984375 132.453125 C-47.94295673 131.49249628 -58.07923258 125.40299053 -68.18359375 115.203125 C-68.84359375 114.213125 -69.50359375 113.223125 -70.18359375 112.203125 C-70.51359375 139.263125 -70.84359375 166.323125 -71.18359375 194.203125 C-84.71359375 194.203125 -98.24359375 194.203125 -112.18359375 194.203125 C-112.18359375 128.533125 -112.18359375 62.863125 -112.18359375 -4.796875 C-98.65359375 -4.796875 -85.12359375 -4.796875 -71.18359375 -4.796875 C-70.68859375 3.618125 -70.68859375 3.618125 -70.18359375 12.203125 C-68.79140625 10.4396875 -68.79140625 10.4396875 -67.37109375 8.640625 C-50.73980281 -10.2282091 -21.23779743 -11.98697769 0 0 Z " fill="#9C9D9D" transform="translate(1591.18359375,953.796875)"/>
<path d="M0 0 C1.81456928 0.35949885 3.6407343 0.65896077 5.46679688 0.95458984 C9.72854752 1.64464014 13.07941541 2.39573364 16.91992188 4.38037109 C17.01365186 18.27177703 17.08377418 32.16313343 17.12717056 46.05479145 C17.14800357 52.50595923 17.17624331 58.95691385 17.22167969 65.40795898 C17.26528966 71.6390154 17.2890912 77.86986738 17.29943085 84.10106468 C17.306795 86.47280277 17.32117523 88.84453025 17.3428421 91.2161808 C17.37207677 94.55020547 17.37586941 97.88339613 17.37402344 101.2175293 C17.38840454 102.18786102 17.40278564 103.15819275 17.41760254 104.15792847 C17.36531974 112.94215627 14.98284638 121.81106924 9.54492188 128.88037109 C1.445093 136.35713621 -8.77428023 136.90167878 -19.16259766 136.51220703 C-25.61300733 136.06871057 -30.7935054 133.63552811 -35.50976562 129.25927734 C-40.40340037 123.40395816 -43.20900799 116.3229294 -43.20033264 108.72332764 C-43.20239464 107.32674423 -43.20239464 107.32674423 -43.20449829 105.90194702 C-43.20090302 104.88774689 -43.19730774 103.87354675 -43.19360352 102.82861328 C-43.19374954 101.75513641 -43.19389557 100.68165955 -43.19404602 99.57565308 C-43.19334915 96.02616355 -43.18556726 92.47672645 -43.17773438 88.92724609 C-43.17586939 86.46673613 -43.17444587 84.0062258 -43.17344666 81.54571533 C-43.16962779 75.06843033 -43.15980285 68.59116774 -43.14874268 62.1138916 C-43.13851503 55.50480452 -43.13394613 48.89571381 -43.12890625 42.28662109 C-43.11818005 29.31785966 -43.10058831 16.34912075 -43.08007812 3.38037109 C-56.61007812 3.38037109 -70.14007812 3.38037109 -84.08007812 3.38037109 C-84.01699188 17.87208335 -83.94143858 32.36358685 -83.84436321 46.85511208 C-83.79957613 53.58519541 -83.76012318 60.31522783 -83.73364258 67.04541016 C-83.70749996 73.54890463 -83.66702046 80.05217067 -83.61689186 86.55552292 C-83.60029705 89.02798989 -83.58873706 91.50049631 -83.58246422 93.97301102 C-83.52342033 115.11992768 -82.15568242 133.80563414 -69.08007812 151.38037109 C-68.33757812 152.41162109 -67.59507812 153.44287109 -66.83007812 154.50537109 C-59.16258297 162.52138875 -48.70825233 168.30379435 -38.08007812 171.38037109 C-38.08007812 171.71037109 -38.08007812 172.04037109 -38.08007812 172.38037109 C-46.38093771 172.00079478 -53.82188881 169.90490811 -61.70507812 167.38037109 C-62.33668854 167.18029449 -62.96829895 166.9802179 -63.61904907 166.77407837 C-115.49627517 150.32857397 -161.40512867 124.89529352 -204.08007812 91.38037109 C-195.25286552 77.23264678 -184.64638767 64.34957096 -173.08007812 52.38037109 C-172.40847656 51.65720703 -171.736875 50.93404297 -171.04492188 50.18896484 C-147.95413867 25.92158122 -114.38772256 8.91882146 -82.08007812 1.38037109 C-81.35949219 1.19990234 -80.63890625 1.01943359 -79.89648438 0.83349609 C-54.77870919 -5.27065945 -25.31954631 -5.06031614 0 0 Z " fill="#448AB0" transform="translate(880.080078125,910.61962890625)"/>
<path d="M0 0 C12.72677665 10.28222747 18.51986547 23.97413209 22.53515625 39.28125 C22.71240234 39.91095703 22.88964844 40.54066406 23.07226562 41.18945312 C27.05024488 59.16589104 22.40779538 79.21940532 12.73291016 94.52929688 C4.90794118 105.9748691 -5.26945529 113.7361014 -17.96484375 119.09375 C-18.65271973 119.38419189 -19.3405957 119.67463379 -20.04931641 119.97387695 C-38.41940304 127.30589244 -60.09551183 126.30017976 -78.20703125 118.7734375 C-86.15927877 115.22194832 -92.41137597 110.49832501 -98.46484375 104.28125 C-99.08746094 103.69085937 -99.71007813 103.10046875 -100.3515625 102.4921875 C-111.90757741 90.70245544 -117.77315685 72.41020043 -117.83984375 56.15625 C-117.42032679 36.27259292 -112.48935352 20.40821074 -98.96484375 5.53125 C-98.13984375 4.78875 -97.31484375 4.04625 -96.46484375 3.28125 C-95.90539063 2.74113281 -95.3459375 2.20101562 -94.76953125 1.64453125 C-68.59368406 -22.78272696 -27.70874797 -19.32147244 0 0 Z " fill="#797A7A" transform="translate(1414.46484375,961.71875)"/>
<path d="M0 0 C13.53 0 27.06 0 41 0 C41.0093457 3.27462158 41.01869141 6.54924316 41.02832031 9.9230957 C41.06215554 20.76775169 41.11774111 31.6122187 41.18390274 42.45672321 C41.22333587 49.02885723 41.25554501 55.60085808 41.27099609 62.1730957 C41.28618974 68.52101685 41.32068431 74.86857182 41.36830902 81.21632957 C41.38309473 83.63265988 41.39103939 86.04904247 41.39188385 88.46541786 C41.39426362 91.86185938 41.42142632 95.25729718 41.45410156 98.65356445 C41.4490712 99.64259766 41.44404083 100.63163086 41.43885803 101.65063477 C41.57641349 110.95108633 43.88993111 119.75123729 50.42578125 126.6328125 C57.80724402 133.04351218 67.83495156 132.61460507 77.05859375 132.18359375 C82.80197349 131.64045724 87.28416896 129.29640567 91.8125 125.875 C96.69715011 119.45517415 100.09264183 112.51241246 100.15821838 104.38092041 C100.1680072 103.45827896 100.17779602 102.53563751 100.18788147 101.58503723 C100.19363693 100.58018784 100.1993924 99.57533844 100.20532227 98.54003906 C100.21522186 97.47631577 100.22512146 96.41259247 100.23532104 95.31663513 C100.26691567 91.79965442 100.29168554 88.2826602 100.31640625 84.765625 C100.33697753 82.32753142 100.35797404 79.88944139 100.37937927 77.45135498 C100.43458196 71.03329342 100.48399926 64.61519978 100.53222656 58.19708252 C100.58245469 51.64828637 100.63813392 45.09953683 100.69335938 38.55078125 C100.80091894 25.70055917 100.90186518 12.85029751 101 0 C114.53 0 128.06 0 142 0 C142.09065396 14.47429975 142.16391936 28.94840849 142.20724869 43.42292881 C142.22778398 50.14525656 142.25572908 56.86739406 142.30175781 63.58959961 C142.34547166 70.08651161 142.36919093 76.58322677 142.37950897 83.08027458 C142.38685466 85.54918449 142.40119807 88.01808459 142.42292023 90.48690987 C142.53356981 103.59342597 142.52723123 115.57604066 138 128 C137.60113586 129.12092545 137.20227173 130.24185089 136.7913208 131.39674377 C134.26055086 138.22509973 130.84768625 143.59569006 126 149 C125.39285156 149.68835937 124.78570313 150.37671875 124.16015625 151.0859375 C112.98640402 163.01374662 97.17575449 170.13100715 80.89428711 171.20483398 C77.50995892 171.30368504 74.13571663 171.3288871 70.75 171.3125 C68.95755859 171.30512817 68.95755859 171.30512817 67.12890625 171.29760742 C50.30670406 171.0740299 36.67642899 166.9881007 23 157 C21.989375 156.278125 20.97875 155.55625 19.9375 154.8125 C8.02878517 144.45853405 2.03814436 128.26802238 0 113 C-0.1411873 109.31501644 -0.1263331 105.63307609 -0.11352539 101.94580078 C-0.11367142 100.84277115 -0.11381744 99.73974152 -0.1139679 98.60328674 C-0.11327274 94.96727514 -0.10549891 91.33131513 -0.09765625 87.6953125 C-0.09579066 85.17040027 -0.09436742 82.64548767 -0.09336853 80.12057495 C-0.08994404 74.16025916 -0.08206719 68.19995985 -0.07201904 62.23965251 C-0.06082437 55.45125333 -0.05533901 48.66285324 -0.05032361 41.87444711 C-0.03988364 27.916286 -0.02155161 13.95814814 0 0 Z " fill="#111212" transform="translate(796,914)"/>
<path d="M0 0 C33.52945367 -6.10123805 33.52945367 -6.10123805 48 0 C61.32187641 9.65000117 68.85347892 27.33744237 75.84631348 41.75567627 C77.35205686 44.68487371 79.08906309 47.32081106 81 50 C83.90189398 46.26868648 86.21520755 42.3184731 88.57202148 38.22851562 C89.79918545 36.11616515 91.05247324 34.01882448 92.32836914 31.93554688 C95.58626739 26.55324673 98.29280053 21.54568269 100.16015625 15.5234375 C102.50917997 8.85578738 104.54241701 3.49344654 111 0 C126.00771902 -3.44305925 142.81191081 -1.32509772 158 0 C156.78616232 3.21482225 155.45498755 6.08475984 153.6015625 8.9765625 C152.89193359 10.0912793 152.89193359 10.0912793 152.16796875 11.22851562 C151.65878906 12.01935547 151.14960937 12.81019531 150.625 13.625 C149.5337441 15.3358673 148.44260139 17.0468068 147.3515625 18.7578125 C146.7937207 19.62954102 146.23587891 20.50126953 145.66113281 21.39941406 C143.09122429 25.42273353 140.54616611 29.46163082 138 33.5 C137.00013493 35.08341854 136.00013452 36.66675163 135 38.25 C134.505 39.03375 134.01 39.8175 133.5 40.625 C132 43 130.5 45.375 129 47.75 C128.50419434 48.53503906 128.00838867 49.32007813 127.49755859 50.12890625 C126.50574568 51.69924974 125.51388436 53.26956266 124.52197266 54.83984375 C121.89629551 58.99666156 119.27166296 63.15413451 116.6484375 67.3125 C116.10058594 68.18068359 115.55273438 69.04886719 114.98828125 69.94335938 C113.93588914 71.61113332 112.88379189 73.27909338 111.83203125 74.94726562 C111.12240234 76.07165039 111.12240234 76.07165039 110.3984375 77.21875 C109.98255371 77.87810547 109.56666992 78.53746094 109.13818359 79.21679688 C108.1122109 80.82419811 107.05777105 82.41334342 106 84 C106.36374305 87.12342761 107.6632938 89.31361389 109.37890625 91.90600586 C109.87960129 92.66846619 110.38029633 93.43092651 110.89616394 94.2164917 C111.44605484 95.04094788 111.99594574 95.86540405 112.5625 96.71484375 C113.13772903 97.58659241 113.71295807 98.45834106 114.30561829 99.35650635 C116.19804308 102.22065709 118.09886083 105.07912772 120 107.9375 C121.30655819 109.91099942 122.61278904 111.88471559 123.91870117 113.85864258 C133.70715985 128.63419702 143.60170817 143.3381499 153.58007812 157.98608398 C154.08371384 158.72695251 154.58734955 159.46782104 155.10624695 160.23114014 C156.04514282 161.6118781 156.98596596 162.99130819 157.92903137 164.36920166 C161 168.88784929 161 168.88784929 161 170 C126.68825012 176.10123617 126.68825012 176.10123617 112 170 C99.34774894 160.93378362 91.9272849 144.39944688 85.33862305 130.72021484 C83.48464103 126.89377405 81.59134489 123.37807175 79 120 C78.34 120 77.68 120 77 120 C76.6189209 120.66193359 76.2378418 121.32386719 75.84521484 122.00585938 C75.30590332 122.94236328 74.7665918 123.87886719 74.2109375 124.84375 C73.30794922 126.4208374 73.30794922 126.4208374 72.38671875 128.02978516 C71.03612713 130.37652999 69.65334192 132.70000741 68.24609375 135.01318359 C64.683686 140.92905499 61.69055671 146.46016622 59.5390625 153.0703125 C56.96908204 160.13518259 54.75265584 166.10627609 48 170 C33.07506158 173.69995838 16.13100385 171.4458618 1 170 C2.33554661 166.40500673 3.94129579 163.2775018 5.984375 160.03515625 C6.5827417 159.0814917 7.1811084 158.12782715 7.79760742 157.14526367 C8.44189697 156.12795166 9.08618652 155.11063965 9.75 154.0625 C10.41813721 153.00071533 11.08627441 151.93893066 11.7746582 150.8449707 C17.37092076 141.96252688 23.00697423 133.10519919 28.65234375 124.25390625 C37.17762536 110.88376347 45.61092197 97.45593267 54 84 C50.62122884 77.67455577 46.91120091 71.6911655 42.87109375 65.76953125 C42.28785339 64.90800446 41.70461304 64.04647766 41.10369873 63.15884399 C39.85981233 61.32217668 38.61430018 59.4866095 37.36727905 57.65206909 C34.76277119 53.81967179 32.16743633 49.98109628 29.57148743 46.14289856 C27.61947651 43.25712118 25.66625578 40.37216552 23.71289062 37.48730469 C18.9559552 30.45927466 14.20800631 23.42533869 9.48587036 16.37387085 C8.62313948 15.08720644 7.75862735 13.80173452 6.89230347 12.51748657 C5.70905634 10.76319572 4.53150656 9.00522248 3.35546875 7.24609375 C2.70215576 6.27341553 2.04884277 5.3007373 1.37573242 4.29858398 C0 2 0 2 0 0 Z " fill="#E8E8E8" transform="translate(1822,914)"/>
<path d="M0 0 C14.78344117 10.47758452 22.18837327 24.0212186 26.21875 41.28125 C26.54875 42.60125 26.87875 43.92125 27.21875 45.28125 C27.21875 52.87125 27.21875 60.46125 27.21875 68.28125 C-4.13125 68.28125 -35.48125 68.28125 -67.78125 68.28125 C-63.1131513 83.06405164 -63.1131513 83.06405164 -52.41796875 92.32421875 C-45.97364055 94.66327121 -37.55777354 94.63395215 -31.109375 92.32421875 C-26.57797036 89.64115021 -23.14747493 86.01369986 -20.78125 81.28125 C-5.93125 81.28125 8.91875 81.28125 24.21875 81.28125 C19.21871048 97.94804841 11.20126784 110.18277553 -3.78125 119.28125 C-21.08399777 128.45525031 -40.49948346 131.39804896 -59.71875 126.71875 C-71.88879074 122.91061909 -81.85137982 117.47619982 -90.78125 108.28125 C-91.62236328 107.47107422 -91.62236328 107.47107422 -92.48046875 106.64453125 C-105.03793194 93.55972053 -109.26003077 73.57506809 -109.28540039 56.11181641 C-108.89675541 37.92565102 -102.41596231 20.64483759 -89.953125 7.3125 C-86.21019503 3.81191802 -82.10090297 1.01774657 -77.78125 -1.71875 C-76.70875 -2.440625 -75.63625 -3.1625 -74.53125 -3.90625 C-69.09649045 -6.92990519 -62.75699255 -8.1684051 -56.78125 -9.71875 C-56.16362793 -9.895271 -55.54600586 -10.07179199 -54.90966797 -10.25366211 C-36.08756571 -14.36654406 -16.14155917 -9.92187582 0 0 Z " fill="#C2C2C3" transform="translate(1762.78125,957.71875)"/>
<path d="M0 0 C12.04720804 10.47025235 18.54312632 22.21945905 22.00390625 37.79296875 C7.15390625 37.79296875 -7.69609375 37.79296875 -22.99609375 37.79296875 C-24.31609375 35.15296875 -25.63609375 32.51296875 -26.99609375 29.79296875 C-32.15463089 24.74418772 -36.59980896 22.51244824 -43.80859375 22.41796875 C-51.14143322 22.56210319 -55.53033182 24.38324686 -60.74609375 29.48046875 C-68.46964455 39.78723417 -69.05223705 52.3860939 -67.99609375 64.79296875 C-66.43426046 72.95015242 -63.95363082 80.67402004 -57.42578125 86.09765625 C-51.03169143 90.11126242 -43.24254849 89.69580573 -35.99609375 88.79296875 C-31.09072021 87.13087816 -28.1838446 84.52402476 -25.55859375 80.10546875 C-25.04296875 79.01234375 -24.52734375 77.91921875 -23.99609375 76.79296875 C-23.66609375 76.13296875 -23.33609375 75.47296875 -22.99609375 74.79296875 C-8.47609375 74.79296875 6.04390625 74.79296875 21.00390625 74.79296875 C19.42903905 85.81703916 15.24502363 95.31972406 8.00390625 103.79296875 C7.10671875 104.99953125 7.10671875 104.99953125 6.19140625 106.23046875 C-3.69577067 117.81259028 -19.51325231 124.05286644 -34.31640625 125.37524414 C-36.54222482 125.53805689 -38.76771017 125.67083766 -40.99609375 125.79296875 C-42.22714844 125.87546875 -43.45820312 125.95796875 -44.7265625 126.04296875 C-61.85749952 126.66239246 -77.5947421 120.30672557 -90.4609375 109.19921875 C-98.25241106 101.80392181 -103.15190524 93.80150689 -106.99609375 83.79296875 C-107.41117188 82.72046875 -107.82625 81.64796875 -108.25390625 80.54296875 C-110.9580258 72.22260091 -111.37567585 64.30732526 -111.43359375 55.60546875 C-111.44374512 54.52499268 -111.45389648 53.4445166 -111.46435547 52.33129883 C-111.26014051 33.44429142 -103.98137472 17.4578759 -91.37109375 3.60546875 C-67.32912762 -19.35225185 -25.98695412 -19.1429323 0 0 Z " fill="#555556" transform="translate(1242.99609375,960.20703125)"/>
<path d="M0 0 C1.70784668 0.0146228 1.70784668 0.0146228 3.45019531 0.02954102 C19.3973005 0.36451652 33.13246764 4.45387957 44.6640625 15.89453125 C52.11556571 24.75540117 57.1875 34.74627309 57.1875 46.4375 C44.6475 46.4375 32.1075 46.4375 19.1875 46.4375 C16.1875 39.4375 16.1875 39.4375 15.1875 36.4375 C13.35465557 35.31233915 13.35465557 35.31233915 11.1875 34.4375 C10.64609375 34.09332031 10.1046875 33.74914062 9.546875 33.39453125 C6.15537042 32.01883817 2.85047993 32.14811462 -0.75 32.1875 C-1.45318359 32.17976562 -2.15636719 32.17203125 -2.88085938 32.1640625 C-6.92752593 32.17923276 -10.26061633 32.41555483 -13.8125 34.4375 C-15.02510877 38.07532632 -15.20794552 40.61485999 -14.8125 44.4375 C-9.17882874 51.94906168 -0.19731083 53.15976025 8.4375 55.125 C25.27645401 59.16567916 43.67566033 64.35252548 53.96875 79.36328125 C59.20541719 88.27568599 59.83859769 98.73739344 57.37890625 108.71875 C53.13541243 120.11304482 45.06741554 128.23477347 34.1875 133.4375 C15.7148168 141.53438001 -5.81232202 142.10931822 -24.8125 135.4375 C-39.1404738 129.70631048 -49.98305481 120.66738266 -56.1875 106.375 C-58.13215828 101.56408451 -58.19184051 98.02343544 -58.8125 92.4375 C-45.2825 92.4375 -31.7525 92.4375 -17.8125 92.4375 C-16.4925 95.4075 -15.1725 98.3775 -13.8125 101.4375 C-8.34136624 107.02504086 -3.94346899 107.58052517 3.625 107.6875 C8.54504685 107.64854035 12.09239381 107.42582074 16.1875 104.4375 C18.66788907 100.7169164 18.65087203 98.83953429 18.1875 94.4375 C12.76817071 85.81583977 -3.60026026 84.34005468 -12.6484375 82.16992188 C-27.16524505 78.56546455 -42.11452338 73.39433046 -50.8125 60.4375 C-55.5121158 51.66395689 -56.31766646 42.05008525 -54.1171875 32.3828125 C-50.55227269 21.568239 -43.07809005 12.64848763 -33.2109375 6.9296875 C-22.52478072 1.78678207 -11.79008773 -0.11340004 0 0 Z " fill="#353636" transform="translate(1037.8125,946.5625)"/>
<path d="M0 0 C7.26 0 14.52 0 22 0 C24.71030376 6.65511598 27.41609996 13.31203934 30.11767578 19.97070312 C31.03797723 22.23716081 31.9595236 24.5031134 32.88232422 26.76855469 C34.20605341 30.01887147 35.52534199 33.27095932 36.84375 36.5234375 C37.46715271 38.05005508 37.46715271 38.05005508 38.10314941 39.60751343 C38.4835437 40.54833771 38.86393799 41.48916199 39.25585938 42.45849609 C39.59339233 43.28900482 39.93092529 44.11951355 40.27868652 44.97518921 C41 47 41 47 41 49 C41.66 49 42.32 49 43 49 C43.19619934 47.90168854 43.19619934 47.90168854 43.3963623 46.78118896 C43.95526062 44.2061314 44.6904054 41.9460879 45.65820312 39.50097656 C45.99525269 38.64368958 46.33230225 37.78640259 46.67956543 36.90313721 C47.04312134 35.99150818 47.40667725 35.07987915 47.78125 34.140625 C48.15479614 33.19564148 48.52834229 32.25065796 48.91320801 31.27703857 C49.70134935 29.28594248 50.49155651 27.29566302 51.28369141 25.30615234 C52.50035128 22.24911735 53.70964357 19.18924386 54.91796875 16.12890625 C55.68446247 14.19514067 56.45137496 12.26154102 57.21875 10.328125 C57.58230591 9.40839905 57.94586182 8.4886731 58.32043457 7.54107666 C58.65748413 6.69639832 58.99453369 5.85171997 59.34179688 4.98144531 C59.63856323 4.23485657 59.93532959 3.48826782 60.24108887 2.71905518 C61 1 61 1 62 0 C68.93 0 75.86 0 83 0 C83 24.09 83 48.18 83 73 C77.06 73 71.12 73 65 73 C64.67 59.8 64.34 46.6 64 33 C56.575 52.8 56.575 52.8 49 73 C44.05 73 39.1 73 34 73 C32.87851563 69.92558594 32.87851563 69.92558594 31.734375 66.7890625 C30.99662141 64.76988589 30.25834449 62.75090134 29.52001953 60.73193359 C29.01328922 59.34541406 28.50708981 57.95870035 28.00146484 56.57177734 C27.26805237 54.56033916 26.53263308 52.5496437 25.796875 50.5390625 C25.35698242 49.33459473 24.91708984 48.13012695 24.46386719 46.88916016 C22.71130032 42.23299102 20.8476976 37.61924401 19 33 C18.67 46.2 18.34 59.4 18 73 C12.06 73 6.12 73 0 73 C0 48.91 0 24.82 0 0 Z " fill="#0F1011" transform="translate(1079,1167)"/>
<path d="M0 0 C6.02605931 4.06317354 10.32180367 9.61101437 12.3984375 16.6171875 C12.82700091 19.7332515 12.87573127 22.78754623 12.8359375 25.9296875 C12.82763916 26.76983398 12.81934082 27.60998047 12.81079102 28.47558594 C12.58222921 36.87299539 10.91601022 43.15026945 5.2109375 49.4921875 C0.4410086 53.80346939 -5.09691576 56.74432662 -11.6015625 57.0546875 C-19.5287081 56.58000812 -23.95962424 54.25912576 -29.6015625 48.6171875 C-29.9315625 60.1671875 -30.2615625 71.7171875 -30.6015625 83.6171875 C-36.5415625 83.6171875 -42.4815625 83.6171875 -48.6015625 83.6171875 C-48.6015625 55.2371875 -48.6015625 26.8571875 -48.6015625 -2.3828125 C-42.6615625 -2.3828125 -36.7215625 -2.3828125 -30.6015625 -2.3828125 C-30.2715625 -0.0728125 -29.9415625 2.2371875 -29.6015625 4.6171875 C-28.9621875 3.8540625 -28.3228125 3.0909375 -27.6640625 2.3046875 C-19.96310532 -5.35276144 -8.93591181 -4.86663504 0 0 Z " fill="#959798" transform="translate(1618.6015625,1184.3828125)"/>
<path d="M0 0 C3.0625 2.1875 3.0625 2.1875 5 4 C5.33 2.02 5.66 0.04 6 -2 C11.94 -2 17.88 -2 24 -2 C24 17.14 24 36.28 24 56 C18.06 56 12.12 56 6 56 C5.505 52.535 5.505 52.535 5 49 C4.360625 49.763125 3.72125 50.52625 3.0625 51.3125 C-1.39429408 55.73163103 -7.37261655 57.10364827 -13.5 57.5 C-20.66540231 57.2004013 -26.05796938 53.30990611 -30.875 48.25 C-38.08066839 39.20529792 -37.77362475 29.07046123 -37 18 C-35.8993909 11.4161762 -31.9255472 6.32599557 -27 2 C-17.90900295 -4.11495404 -9.96702828 -4.52874479 0 0 Z " fill="#2B2D2D" transform="translate(1227,1184)"/>
<path d="M0 0 C1.79296875 1.63671875 1.79296875 1.63671875 3 3 C3.33 1.02 3.66 -0.96 4 -3 C9.94 -3 15.88 -3 22 -3 C22 16.14 22 35.28 22 55 C16.06 55 10.12 55 4 55 C3.505 52.03 3.505 52.03 3 49 C1.96875 49.78375 0.9375 50.5675 -0.125 51.375 C-6.00177593 55.52400381 -11.85857818 57.10044381 -19 56 C-27.54880952 53.11171443 -32.76688266 48.38923063 -36.8125 40.4375 C-40.29523585 30.35589623 -39.93154903 19.91047076 -36 10 C-32.4666451 3.52768635 -27.14140255 -1.44562249 -19.984375 -3.609375 C-12.5790279 -5.06712049 -6.58766273 -3.49859886 0 0 Z " fill="#BFC0C0" transform="translate(1744,1185)"/>
<path d="M0 0 C3.67418099 2.1594938 6.60045077 4.54832444 9.375 7.8125 C10.426875 8.8953125 10.426875 8.8953125 11.5 10 C17.67869345 19.26804017 17.52113525 31.05801737 15.94140625 41.74609375 C13.91518203 49.81323489 9.11022648 56.32291613 2.125 60.8125 C-5.0554246 64.94842457 -13.54759013 64.58054218 -21.625 63.8125 C-24.97505307 62.88486694 -26.70714886 61.83255079 -29.625 59.8125 C-30.49125 59.27625 -31.3575 58.74 -32.25 58.1875 C-38.82902064 51.60847936 -42.80631307 43.10809719 -43.00585938 33.79882812 C-42.97468168 22.23190261 -41.26754788 13.34304894 -32.87109375 4.76171875 C-23.63121876 -3.2568858 -11.29450869 -5.31010483 0 0 Z " fill="#458BB0" transform="translate(1562.625,985.1875)"/>
<path d="M0 0 C5.92395968 3.54106354 9.91455386 7.75103994 12.73828125 14.0390625 C13.03734375 14.64878906 13.33640625 15.25851562 13.64453125 15.88671875 C17.52386449 25.20789446 17.2731693 37.24597907 13.67578125 46.6015625 C9.74489151 54.61706393 4.79967156 60.49833491 -3.45703125 64.1875 C-10.63960472 66.36828136 -17.77391754 66.10542049 -24.63671875 63.0390625 C-31.67887587 58.95781235 -36.82450574 52.95458074 -39.609375 45.28125 C-41.85377013 34.12647182 -42.14840038 19.22563797 -35.69921875 9.4140625 C-27.75784409 -1.89163836 -12.70073208 -5.82003568 0 0 Z " fill="#458AB0" transform="translate(1380.26171875,984.9609375)"/>
<path d="M0 0 C5.94 0 11.88 0 18 0 C18.495 19.8 18.495 19.8 19 40 C25.78402357 31.33381639 25.78402357 31.33381639 31.9140625 22.21875 C33.71861857 19.80082266 34.55474411 19.10773155 37.51855469 18.390625 C40.51522532 18.21177996 43.38039765 18.29907184 46.375 18.5 C47.39722656 18.53609375 48.41945313 18.5721875 49.47265625 18.609375 C51.98566323 18.70331919 54.49086139 18.83446434 57 19 C53.3306317 23.98854783 49.54876533 28.81519675 45.5 33.5 C41.47215075 38.20543137 37.63950429 42.98338598 34 48 C38.4151913 54.18126782 43.28904657 59.86936365 48.32885742 65.54321289 C51.55306324 69.20406474 54.39650873 72.87251384 57 77 C49.74614636 78.21685809 42.12262733 79.24482666 35 77 C28.63963139 72.15350856 24.83416251 64.87235803 21 58 C20.34 57.01 19.68 56.02 19 55 C18.67 62.26 18.34 69.52 18 77 C12.06 77 6.12 77 0 77 C0 51.59 0 26.18 0 0 Z " fill="#545556" transform="translate(1345,1163)"/>
<path d="M0 0 C6.06326734 4.85061388 9.84131735 9.69379985 11.8125 17.25 C11.8125 21.21 11.8125 25.17 11.8125 29.25 C-1.3875 29.25 -14.5875 29.25 -28.1875 29.25 C-26.16134121 37.02277038 -26.16134121 37.02277038 -22.1875 39.25 C-20.04290824 39.64030357 -20.04290824 39.64030357 -17.75 39.625 C-16.60724609 39.66753906 -16.60724609 39.66753906 -15.44140625 39.7109375 C-13.00615136 39.45703642 -13.00615136 39.45703642 -11.51171875 37.2421875 C-7.85273691 34.10591735 -4.08467003 34.82152671 0.5625 35 C1.45066406 35.01804687 2.33882812 35.03609375 3.25390625 35.0546875 C5.44120848 35.10172626 7.62629816 35.16742991 9.8125 35.25 C8.87339151 41.46754584 5.77194988 45.94949013 0.8125 49.8046875 C-7.42922883 55.0806427 -14.41044973 56.11011912 -24.1875 55.25 C-31.57251628 53.42018143 -38.30799127 48.55261853 -42.5390625 42.23046875 C-46.84608691 34.12768542 -47.83894253 23.52548161 -45.50390625 14.65234375 C-41.59530136 5.19708795 -35.57095826 0.15157193 -26.4375 -4 C-16.88155086 -6.20521903 -8.49452709 -4.66366193 0 0 Z " fill="#EDEEEF" transform="translate(1921.1875,1185.75)"/>
<path d="M0 0 C6.98808273 4.63136356 10.39467124 10.18401371 13 18 C13 21.96 13 25.92 13 30 C-0.2 30 -13.4 30 -27 30 C-24.97384121 37.77277038 -24.97384121 37.77277038 -21 40 C-18.85540824 40.39030357 -18.85540824 40.39030357 -16.5625 40.375 C-15.41974609 40.41753906 -15.41974609 40.41753906 -14.25390625 40.4609375 C-11.81865136 40.20703642 -11.81865136 40.20703642 -10.32421875 37.9921875 C-6.66523691 34.85591735 -2.89717003 35.57152671 1.75 35.75 C2.63816406 35.76804687 3.52632812 35.78609375 4.44140625 35.8046875 C6.62870848 35.85172626 8.81379816 35.91742991 11 36 C9.0601919 43.46559171 6.78700579 47.38708111 0.4296875 51.7734375 C-7.95721726 56.5371994 -16.19644045 57.7442409 -25.60546875 55.33203125 C-32.93321694 52.4438138 -39.13788099 47.52893293 -42.4375 40.3125 C-45.78966956 31.84939927 -46.9383285 21.63814535 -43.375 13.0625 C-39.00446934 4.81216493 -33.6551587 0.57052668 -25.25 -3.25 C-16.3001092 -5.31535941 -8.16123745 -4.19190833 0 0 Z " fill="#6D6E6F" transform="translate(1469,1185)"/>
<path d="M0 0 C5.048238 3.11770303 8.47528902 7.68905419 11 13 C11.38339004 14.65586864 11.72908213 16.32205709 12 18 C8.93601549 18.13530844 5.87802874 18.2342407 2.8125 18.3125 C1.94818359 18.35439453 1.08386719 18.39628906 0.19335938 18.43945312 C-6.35689569 18.56493694 -6.35689569 18.56493694 -9.828125 15.515625 C-10.54484375 14.68546875 -11.2615625 13.8553125 -12 13 C-15.08804049 12.1615944 -17.8737752 12.35722481 -21 13 C-24.03215675 15.19831364 -24.81654398 16.44963194 -26 20 C-26.73284374 29.50985715 -26.73284374 29.50985715 -23 38 C-20.64994965 39.78279682 -18.99234991 40.00113938 -16.0625 40.4375 C-11.97750377 39.85392911 -10.62536706 38.07542999 -8 35 C-7 34 -7 34 -5.23413086 33.88647461 C-4.48526611 33.89171143 -3.73640137 33.89694824 -2.96484375 33.90234375 C-2.15595703 33.90556641 -1.34707031 33.90878906 -0.51367188 33.91210938 C0.33646484 33.92048828 1.18660156 33.92886719 2.0625 33.9375 C2.91650391 33.94201172 3.77050781 33.94652344 4.65039062 33.95117188 C6.76695663 33.96299627 8.88348685 33.98093231 11 34 C9.97393924 41.09276951 7.86577666 45.79268414 2.25 50.25 C-5.833276 55.79705546 -13.1892663 57.06061986 -23 56 C-30.39118632 54.10134663 -37.42829337 49.33325134 -41.3515625 42.72265625 C-45.2582424 34.2769202 -46.6573386 24.55946661 -44.3515625 15.43359375 C-41.10777581 7.46275038 -36.14471227 1.64479421 -28.3125 -2 C-18.37606001 -5.65948789 -9.29170007 -5.06971113 0 0 Z " fill="#D5D7D7" transform="translate(1839,1185)"/>
<path d="M0 0 C5.61 0 11.22 0 17 0 C17 4.62 17 9.24 17 14 C20.96 14 24.92 14 29 14 C29 18.95 29 23.9 29 29 C25.37 29 21.74 29 18 29 C18.13811922 33.31278385 18.28678109 37.62513953 18.4375 41.9375 C18.47681641 43.16919922 18.51613281 44.40089844 18.55664062 45.66992188 C18.59853516 46.83974609 18.64042969 48.00957031 18.68359375 49.21484375 C18.72025146 50.29886475 18.75690918 51.38288574 18.79467773 52.49975586 C18.72364265 54.939263 18.72364265 54.939263 20 56 C22.98889359 56.45765667 25.98969648 56.70320951 29 57 C29 61.95 29 66.9 29 72 C11.66955605 72.78774745 11.66955605 72.78774745 4 67 C0.06901687 62.11605127 -0.12446961 57.37907059 -0.09765625 51.265625 C-0.09443359 49.97011719 -0.09121094 48.67460938 -0.08789062 47.33984375 C-0.07953598 45.97656183 -0.07107104 44.61328058 -0.0625 43.25 C-0.05748168 41.87109535 -0.05291935 40.49218896 -0.04882812 39.11328125 C-0.03704093 35.74214341 -0.02058635 32.37109372 0 29 C-2.31 29 -4.62 29 -7 29 C-7 24.05 -7 19.1 -7 14 C-4.69 14 -2.38 14 0 14 C0 9.38 0 4.76 0 0 Z " fill="#818283" transform="translate(1513,1168)"/>
<path d="M0 0 C5.94 0 11.88 0 18 0 C18 25.41 18 50.82 18 77 C12.06 77 6.12 77 0 77 C0 51.59 0 26.18 0 0 Z " fill="#A9ABAC" transform="translate(1659,1163)"/>
<path d="M0 0 C5.94 0 11.88 0 18 0 C18.33 2.64 18.66 5.28 19 8 C19.47308594 7.50628906 19.94617187 7.01257812 20.43359375 6.50390625 C25.59256378 1.50583977 28.8166205 0.1122403 36 0 C36 5.94 36 11.88 36 18 C31.1171875 18.53710938 31.1171875 18.53710938 26.234375 19.07421875 C22.15315006 20.24239545 21.24046776 21.43193591 19 25 C18.59022188 27.70002731 18.39538612 30.00983491 18.390625 32.70703125 C18.37408875 33.43242599 18.35755249 34.15782074 18.34051514 34.90519714 C18.29217523 37.20771873 18.27069715 39.50958066 18.25 41.8125 C18.22182832 43.37959023 18.1918992 44.94664992 18.16015625 46.51367188 C18.0831288 50.34274709 18.04248736 54.16976482 18 58 C12.06 58 6.12 58 0 58 C0 38.86 0 19.72 0 0 Z " fill="#404142" transform="translate(1282,1182)"/>
<path d="M0 0 C3.85262369 3.52785707 7.3304494 6.9913482 9 12 C9 14.31 9 16.62 9 19 C-7.83 19 -24.66 19 -42 19 C-40.7767709 10.43739632 -38.57361297 5.56401956 -31.90234375 0.2890625 C-22.47120838 -6.10164525 -9.62199243 -6.09231682 0 0 Z " fill="#468BB1" transform="translate(1738,984)"/>
<path d="M0 0 C3.96187092 1.58629597 6.59442369 3.39163553 9 7 C9.63080053 12.49383253 10.31946506 18.86355382 7.1875 23.6875 C4.8607196 26.14723928 3.13652019 27.81416623 -0.26953125 28.37109375 C-7.98481876 28.57256823 -7.98481876 28.57256823 -11.5 25.8125 C-15.69348045 21.0948345 -16.41389845 17.3214541 -16.25 11.14453125 C-15.75574859 6.90478087 -13.65518532 4.69262448 -10.8125 1.6875 C-7.15549212 -0.50670473 -4.10769693 -0.78575263 0 0 Z " fill="#468BB0" transform="translate(1604,1197)"/>
<path d="M0 0 C4.81099442 1.72469611 6.76835123 3.45309603 9 8 C9.3984375 10.9375 9.3984375 10.9375 9.375 14 C9.38273437 15.010625 9.39046875 16.02125 9.3984375 17.0625 C8.943445 20.41695452 7.99086651 22.28388926 6 25 C1.91733823 27.81898075 -1.92386807 28.69462519 -6.8125 28.5625 C-10.84477835 27.52562842 -12.85439081 24.38699737 -15 21 C-16.99765403 17.00469193 -16.64943255 12.33153639 -16 8 C-12.15721283 1.20122271 -7.70660817 -0.78931741 0 0 Z " fill="#478BB1" transform="translate(1739,1197)"/>
<path d="M0 0 C3.67365784 1.71437366 7.10996961 3.81537995 8.6875 7.6875 C9.55421232 14.10117117 9.49996859 18.42597596 6 24 C3.64385456 26.84700908 1.63272114 27.78597288 -2.0859375 28.2734375 C-6.4895784 28.46882088 -8.35617189 28.50684341 -11.9375 25.6875 C-15.15574973 21.49402308 -16.29277365 19.39851119 -16.3125 14.125 C-16.32925781 13.09632812 -16.34601563 12.06765625 -16.36328125 11.0078125 C-15.83311712 6.6182815 -14.19130006 3.98707719 -10.8125 1.1875 C-7.09296606 -0.38296988 -3.98195117 -0.60577351 0 0 Z " fill="#4489AE" transform="translate(1224,1197)"/>
<path d="M0 0 C3.0625 1.625 3.0625 1.625 5 4 C5.33 5.98 5.66 7.96 6 10 C-1.26 10 -8.52 10 -16 10 C-15 4 -15 4 -13.0625 1.625 C-8.68237143 -0.69914986 -4.85902671 -0.78191234 0 0 Z " fill="#5393B6" transform="translate(1909,1196)"/>
<path d="M0 0 C3.0625 1.625 3.0625 1.625 5 4 C5.33 5.98 5.66 7.96 6 10 C-1.26 10 -8.52 10 -16 10 C-15 4 -15 4 -13.0625 1.625 C-8.68237143 -0.69914986 -4.85902671 -0.78191234 0 0 Z " fill="#4888AB" transform="translate(1458,1196)"/>
<path d="M0 0 C8.25 0 16.5 0 25 0 C25 0.33 25 0.66 25 1 C24.09636719 1.06058594 23.19273437 1.12117188 22.26171875 1.18359375 C20.49248047 1.30927734 20.49248047 1.30927734 18.6875 1.4375 C17.51574219 1.51871094 16.34398437 1.59992188 15.13671875 1.68359375 C11.97409042 1.8867371 11.97409042 1.8867371 9 3 C6.73828125 2.66015625 6.73828125 2.66015625 4.3125 2.0625 C3.50425781 1.86785156 2.69601562 1.67320313 1.86328125 1.47265625 C0.94095703 1.23869141 0.94095703 1.23869141 0 1 C0 0.67 0 0.34 0 0 Z " fill="#37667F" transform="translate(851,1085)"/>
<path d="M0 0 C0 0.33 0 0.66 0 1 C-1.58409994 0.88512252 -3.16728963 0.75765492 -4.75 0.625 C-5.63171875 0.55539062 -6.5134375 0.48578125 -7.421875 0.4140625 C-9.99066382 0.00149945 -11.75841015 -0.71160957 -14 -2 C-8.99069255 -3.66976915 -4.85579187 -1.69388089 0 0 Z " fill="#457E9E" transform="translate(842,1082)"/>
</svg>
